<svg preserveAspectRatio="none" width="100%" height="100%" overflow="visible" style="display: block;" viewBox="0 0 16.5 19.5" fill="none" xmlns="http://www.w3.org/2000/svg">
<path id="file" d="M16.28 6.22L10.28 0.220001C10.139 0.0790012 9.949 0 9.75 0H3.75C1.332 0 0 1.332 0 3.75V15.75C0 18.168 1.332 19.5 3.75 19.5H12.75C15.168 19.5 16.5 18.168 16.5 15.75V6.75C16.5 6.551 16.421 6.36 16.28 6.22ZM10.5 2.561L13.939 6H12.75C11.173 6 10.5 5.327 10.5 3.75V2.561ZM12.75 18H3.75C2.173 18 1.5 17.327 1.5 15.75V3.75C1.5 2.173 2.173 1.5 3.75 1.5H9V3.75C9 6.168 10.332 7.5 12.75 7.5H15V15.75C15 17.327 14.327 18 12.75 18Z" fill="var(--fill-0, #1E293B)"/>
</svg>
