<svg preserveAspectRatio="none" width="100%" height="100%" overflow="visible" style="display: block;" viewBox="0 0 19.5 17.5" fill="none" xmlns="http://www.w3.org/2000/svg">
<path id="folder" d="M15.75 17.5H3.75C1.332 17.5 0 16.168 0 13.75V3.75C0 1.332 1.332 0 3.75 0H7.75C7.949 0 8.14003 0.0790012 8.28003 0.220001L11.0601 3H15.75C18.168 3 19.5 4.332 19.5 6.75V13.75C19.5 16.168 18.168 17.5 15.75 17.5ZM3.75 1.5C2.173 1.5 1.5 2.173 1.5 3.75V13.75C1.5 15.327 2.173 16 3.75 16H15.75C17.327 16 18 15.327 18 13.75V6.75C18 5.173 17.327 4.5 15.75 4.5H10.75C10.551 4.5 10.36 4.421 10.22 4.28L7.43994 1.5H3.75Z" fill="var(--fill-0, #1E293B)"/>
</svg>
