<svg width="255" height="132" viewBox="0 0 255 132" fill="none" xmlns="http://www.w3.org/2000/svg">
<path d="M43.52 130.944C39.3387 130.944 35.328 129.109 31.488 125.44C27.7333 121.771 24.6613 116.437 22.272 109.44C19.8827 102.528 18.688 94.1653 18.688 84.352C18.688 83.1573 18.688 81.92 18.688 80.64C18.7733 79.36 18.8587 78.0373 18.944 76.672C18.0907 76.7573 17.2373 76.8 16.384 76.8C15.616 76.8 14.8907 76.8 14.208 76.8C9.25867 76.8 5.632 76.16 3.328 74.88C1.10933 73.6 0 71.936 0 69.888C0 67.84 0.981333 65.5787 2.944 63.104C4.992 60.6293 7.808 58.112 11.392 55.552C14.976 52.992 19.1147 50.688 23.808 48.64C25.7707 41.5573 28.3307 34.0907 31.488 26.24C34.6453 18.3893 38.5707 10.1973 43.264 1.66399C43.8613 0.554665 44.7573 0 45.952 0C46.72 0 47.4027 0.255999 48 0.767998C48.5973 1.28 48.896 1.96266 48.896 2.81599C48.896 3.24266 48.768 3.79733 48.512 4.48C47.8293 5.84533 47.1467 7.25333 46.464 8.70399C45.7813 10.0693 45.0987 11.4347 44.416 12.8C45.696 12.544 46.6773 12.416 47.36 12.416C48.0427 12.416 48.8533 12.3733 49.792 12.288C50.7307 12.2027 52.1813 12.032 54.144 11.776C56.8747 11.3493 59.4347 11.008 61.824 10.752C64.2987 10.496 66.6027 10.368 68.736 10.368C76.8427 10.368 82.816 11.776 86.656 14.592C90.496 17.408 92.416 20.992 92.416 25.344C92.416 30.5493 89.8987 36.2667 84.864 42.496C80.6827 47.616 75.4347 52.5653 69.12 57.344C62.8907 62.1227 55.8507 66.2187 48 69.632C40.2347 72.96 31.9573 75.1787 23.168 76.288C22.8267 78.7627 22.5707 81.152 22.4 83.456C22.2293 85.76 22.144 87.936 22.144 89.984C22.144 97.408 22.9973 103.509 24.704 108.288C26.496 113.152 28.672 116.949 31.232 119.68C33.8773 122.411 36.48 124.331 39.04 125.44C41.6853 126.549 43.8187 127.104 45.44 127.104C46.72 127.104 47.5733 126.891 48 126.464C48.3413 126.037 48.7253 125.824 49.152 125.824C50.0907 125.824 50.56 126.464 50.56 127.744C50.56 128.768 50.0907 129.451 49.152 129.792C47.36 130.56 45.4827 130.944 43.52 130.944ZM23.552 73.984C32.512 72.192 40.6187 69.4613 47.872 65.792C55.2107 62.1227 61.696 57.8987 67.328 53.12C72.96 48.3413 77.696 43.3493 81.536 38.144C83.7547 35.2427 85.3333 32.64 86.272 30.336C87.2107 27.9467 87.68 25.856 87.68 24.064C87.68 21.1627 86.656 18.8587 84.608 17.152C82.6453 15.36 80.0427 14.08 76.8 13.312C73.5573 12.544 70.0587 12.16 66.304 12.16C62.3787 12.16 58.496 12.5013 54.656 13.184C50.816 13.8667 47.4027 14.7627 44.416 15.872C43.8187 16.128 43.3067 16.1707 42.88 16C40.4053 21.4613 38.144 26.7093 36.096 31.744C34.1333 36.6933 32.384 41.4293 30.848 45.952C34.5173 44.7573 38.3573 43.7333 42.368 42.88C46.3787 42.0267 50.5173 41.5147 54.784 41.344H55.296C56.1493 41.344 56.576 41.5147 56.576 41.856C56.576 42.112 56.1493 42.4107 55.296 42.752C54.528 43.0933 53.2053 43.3067 51.328 43.392C47.4027 43.5627 43.6907 44.0747 40.192 44.928C36.6933 45.696 33.3653 46.6773 30.208 47.872C28.5867 52.8213 27.2213 57.472 26.112 61.824C25.088 66.176 24.2347 70.2293 23.552 73.984ZM14.72 75.008C15.4027 75.008 16.0853 75.008 16.768 75.008C17.536 74.9227 18.304 74.8373 19.072 74.752C19.4133 71.0827 19.9253 67.2853 20.608 63.36C21.2907 59.3493 22.1867 55.2107 23.296 50.944C17.8347 53.76 13.4827 56.9173 10.24 60.416C6.99733 63.8293 5.376 66.8587 5.376 69.504C5.376 71.1253 6.144 72.448 7.68 73.472C9.216 74.496 11.5627 75.008 14.72 75.008Z" fill="#A4A4A4"/>
<path d="M60.061 131.712C58.1837 131.797 56.733 131.456 55.709 130.688C54.5997 129.92 54.2157 128.469 54.557 126.336C54.557 126.08 54.6423 125.696 54.813 125.184C54.9837 124.672 55.197 124.331 55.453 124.16C55.3677 126.293 55.6237 127.787 56.221 128.64C56.8183 129.493 57.7997 129.92 59.165 129.92C62.493 129.92 65.9063 128.853 69.405 126.72C72.989 124.587 76.5303 121.728 80.029 118.144C79.1757 117.888 78.0663 117.376 76.701 116.608C75.421 115.925 74.4397 115.371 73.757 114.944C70.3437 112.469 68.637 109.611 68.637 106.368C68.637 103.893 69.7463 101.205 71.965 98.304C74.1837 95.4027 77.8103 92.4587 82.845 89.472C86.0877 87.5093 89.8423 85.76 94.109 84.224C98.3757 82.688 102.344 81.4507 106.013 80.512C107.293 78.0373 108.53 75.6053 109.725 73.216C110.92 70.8267 112.072 68.4373 113.181 66.048C113.608 65.1093 114.376 63.3173 115.485 60.672C116.594 58.0267 117.832 54.912 119.197 51.328C120.562 47.744 121.842 43.9467 123.037 39.936C124.317 35.84 125.384 31.872 126.237 28.032C127.09 24.192 127.517 20.7787 127.517 17.792C127.517 14.8907 127.005 12.6293 125.981 11.008C125.042 9.38666 123.336 8.576 120.861 8.576H120.733C120.05 8.576 119.709 8.36266 119.709 7.936C119.709 7.50933 120.136 7.21066 120.989 7.03999C125.085 6.61333 127.944 7.59466 129.565 9.98399C131.186 12.3733 131.997 15.5307 131.997 19.456C131.997 20.1387 131.954 20.864 131.869 21.632C131.869 22.4 131.826 23.2107 131.741 24.064C132.253 24.4907 132.594 25.216 132.765 26.24C133.277 28.9707 133.789 32.5547 134.301 36.992C134.898 41.4293 135.581 46.2933 136.349 51.584C137.117 56.8747 138.013 62.2507 139.037 67.712C140.146 73.088 141.426 78.1653 142.877 82.944C144.413 87.6373 146.205 91.6053 148.253 94.848C148.68 95.5307 149.277 96.4267 150.045 97.536C150.813 98.56 151.752 99.4987 152.861 100.352C153.97 101.205 155.208 101.632 156.573 101.632C158.024 101.632 159.517 101.035 161.053 99.84C162.418 98.7307 163.698 97.1947 164.893 95.232C166.088 93.2693 167.197 91.1787 168.221 88.96C168.733 88.0213 169.202 87.552 169.629 87.552C170.056 87.552 170.354 87.808 170.525 88.32C170.781 88.7467 170.866 89.1733 170.781 89.6C170.44 90.7093 169.714 92.032 168.605 93.568C167.581 95.0187 166.514 96.384 165.405 97.664C164.296 98.8587 163.4 99.712 162.717 100.224C161.181 101.419 159.688 102.272 158.237 102.784C156.872 103.381 155.592 103.68 154.397 103.68C151.581 103.68 149.106 102.613 146.973 100.48C144.925 98.2613 143.133 95.9573 141.597 93.568C139.464 90.1547 137.757 85.8453 136.477 80.64C135.282 75.4347 134.344 69.8027 133.661 63.744C132.978 57.6853 132.424 51.712 131.997 45.824C131.656 39.936 131.272 34.56 130.845 29.696C129.821 34.4747 128.413 39.3813 126.621 44.416C124.829 49.4507 122.994 54.1013 121.117 58.368C119.325 62.5493 117.832 65.792 116.637 68.096C114.76 71.936 112.712 75.776 110.493 79.616C114.418 78.6773 118.514 77.824 122.781 77.056C127.048 76.288 130.802 75.5627 134.045 74.88H134.429C134.77 74.88 134.941 75.008 134.941 75.264C134.941 75.52 134.728 75.8613 134.301 76.288C133.874 76.7147 133.32 77.0133 132.637 77.184C128.968 77.8667 125 78.6773 120.733 79.616C116.466 80.4693 112.456 81.408 108.701 82.432C104.776 89.1733 100.808 95.5733 96.797 101.632C92.7863 107.691 88.3917 113.067 83.613 117.76C86.8557 118.784 90.9943 119.296 96.029 119.296H96.285C96.9677 119.296 97.309 119.467 97.309 119.808C97.309 120.32 96.797 120.576 95.773 120.576C93.3837 120.661 91.037 120.533 88.733 120.192C86.429 119.936 84.2957 119.509 82.333 118.912C78.5783 122.581 74.781 125.525 70.941 127.744C67.1863 130.048 63.5597 131.371 60.061 131.712ZM81.309 116.864C85.405 112.597 89.373 107.605 93.213 101.888C97.1383 96.1707 100.808 90.1973 104.221 83.968C103.112 84.3093 101.96 84.6933 100.765 85.12C99.5703 85.5467 98.4183 86.0587 97.309 86.656C95.8583 87.3387 93.8957 88.32 91.421 89.6C88.9463 90.88 86.4717 92.2453 83.997 93.696C81.6077 95.0613 79.773 96.2987 78.493 97.408C76.7863 98.944 75.549 100.437 74.781 101.888C74.013 103.339 73.629 104.747 73.629 106.112C73.629 107.307 73.8423 108.459 74.269 109.568C74.781 110.677 75.3783 111.744 76.061 112.768C76.4877 113.28 77.2557 113.963 78.365 114.816C79.5597 115.755 80.541 116.437 81.309 116.864Z" fill="#A4A4A4"/>
<path d="M160.401 111.616C159.974 111.616 159.761 111.275 159.761 110.592C159.761 109.995 159.974 109.269 160.401 108.416C160.828 107.563 161.382 106.88 162.065 106.368C162.748 105.941 163.473 105.472 164.241 104.96C164.924 104.533 165.606 104.149 166.289 103.808C166.204 103.637 166.161 103.339 166.161 102.912C166.161 102.229 166.374 101.888 166.801 101.888C167.057 101.888 167.441 102.187 167.953 102.784C174.609 99.1147 181.094 96.4267 187.409 94.72V94.336C187.409 91.9467 186.769 89.728 185.489 87.68C184.294 85.632 182.758 83.5413 180.881 81.408C179.004 79.2747 177.084 76.928 175.121 74.368C173.244 71.808 171.537 68.9067 170.001 65.664C168.55 62.336 167.612 58.4533 167.185 54.016C167.1 53.504 167.057 52.992 167.057 52.48C167.057 51.968 167.057 51.456 167.057 50.944C167.057 45.4827 168.294 40.5333 170.769 36.096C173.244 31.6587 176.444 27.8613 180.369 24.704C184.38 21.4613 188.689 18.944 193.297 17.152C196.966 15.7013 201.148 14.976 205.841 14.976C207.548 14.976 209.169 15.104 210.705 15.36C215.228 16.2133 218.385 17.7067 220.177 19.84C221.969 21.9733 222.865 24.1067 222.865 26.24C222.865 27.8613 222.438 29.312 221.585 30.592C220.732 31.872 220.134 32.512 219.793 32.512C219.537 32.512 219.409 32.3413 219.409 32C219.409 31.8293 219.452 31.5733 219.537 31.232C219.708 30.8053 219.836 30.3787 219.921 29.952C220.177 29.2693 220.348 28.672 220.433 28.16C220.518 27.648 220.561 27.136 220.561 26.624C220.561 23.8933 219.281 21.888 216.721 20.608C214.246 19.2427 211.601 18.56 208.785 18.56C208.444 18.56 208.06 18.56 207.633 18.56C207.206 18.56 206.78 18.6027 206.353 18.688C200.977 19.456 195.9 21.4187 191.121 24.576C186.342 27.7333 182.289 31.872 178.961 36.992C175.718 42.0267 173.585 47.8293 172.561 54.4C172.476 54.9973 172.39 55.5947 172.305 56.192C172.305 56.7893 172.305 57.344 172.305 57.856C172.305 61.8667 173.158 65.536 174.865 68.864C176.572 72.1067 178.577 75.136 180.881 77.952C183.27 80.768 185.532 83.4987 187.665 86.144C189.798 88.704 191.249 91.264 192.017 93.824C193.724 93.4827 195.388 93.2693 197.009 93.184C198.63 93.0987 200.209 93.0987 201.745 93.184C202.94 93.3547 203.537 93.696 203.537 94.208C203.537 94.72 202.684 94.976 200.977 94.976C199.782 94.976 198.46 95.0613 197.009 95.232C195.558 95.3173 194.022 95.5733 192.401 96C192.486 96.256 192.529 96.512 192.529 96.768C192.529 97.024 192.529 97.2373 192.529 97.408C192.529 98.2613 192.401 99.1573 192.145 100.096C191.036 103.509 189.03 106.027 186.129 107.648C183.228 109.269 180.284 110.08 177.297 110.08C174.396 110.08 171.964 109.483 170.001 108.288C169.318 107.947 168.678 107.477 168.081 106.88C166.972 107.477 165.862 108.16 164.753 108.928C163.558 109.696 162.406 110.464 161.297 111.232C160.956 111.488 160.657 111.616 160.401 111.616ZM176.145 107.776C178.62 107.776 181.052 106.965 183.441 105.344C185.83 103.808 187.153 101.205 187.409 97.536C181.777 99.4987 175.974 102.229 170.001 105.728C171.366 107.093 173.414 107.776 176.145 107.776Z" fill="#A4A4A4"/>
<path d="M192.151 111.616C191.724 111.616 191.511 111.275 191.511 110.592C191.511 109.995 191.724 109.269 192.151 108.416C192.578 107.563 193.132 106.88 193.815 106.368C194.498 105.941 195.223 105.472 195.991 104.96C196.674 104.533 197.356 104.149 198.039 103.808C197.954 103.637 197.911 103.339 197.911 102.912C197.911 102.229 198.124 101.888 198.551 101.888C198.807 101.888 199.191 102.187 199.703 102.784C206.359 99.1147 212.844 96.4267 219.159 94.72V94.336C219.159 91.9467 218.519 89.728 217.239 87.68C216.044 85.632 214.508 83.5413 212.631 81.408C210.754 79.2747 208.834 76.928 206.871 74.368C204.994 71.808 203.287 68.9067 201.751 65.664C200.3 62.336 199.362 58.4533 198.935 54.016C198.85 53.504 198.807 52.992 198.807 52.48C198.807 51.968 198.807 51.456 198.807 50.944C198.807 45.4827 200.044 40.5333 202.519 36.096C204.994 31.6587 208.194 27.8613 212.119 24.704C216.13 21.4613 220.439 18.944 225.047 17.152C228.716 15.7013 232.898 14.976 237.591 14.976C239.298 14.976 240.919 15.104 242.455 15.36C246.978 16.2133 250.135 17.7067 251.927 19.84C253.719 21.9733 254.615 24.1067 254.615 26.24C254.615 27.8613 254.188 29.312 253.335 30.592C252.482 31.872 251.884 32.512 251.543 32.512C251.287 32.512 251.159 32.3413 251.159 32C251.159 31.8293 251.202 31.5733 251.287 31.232C251.458 30.8053 251.586 30.3787 251.671 29.952C251.927 29.2693 252.098 28.672 252.183 28.16C252.268 27.648 252.311 27.136 252.311 26.624C252.311 23.8933 251.031 21.888 248.471 20.608C245.996 19.2427 243.351 18.56 240.535 18.56C240.194 18.56 239.81 18.56 239.383 18.56C238.956 18.56 238.53 18.6027 238.103 18.688C232.727 19.456 227.65 21.4187 222.871 24.576C218.092 27.7333 214.039 31.872 210.711 36.992C207.468 42.0267 205.335 47.8293 204.311 54.4C204.226 54.9973 204.14 55.5947 204.055 56.192C204.055 56.7893 204.055 57.344 204.055 57.856C204.055 61.8667 204.908 65.536 206.615 68.864C208.322 72.1067 210.327 75.136 212.631 77.952C215.02 80.768 217.282 83.4987 219.415 86.144C221.548 88.704 222.999 91.264 223.767 93.824C225.474 93.4827 227.138 93.2693 228.759 93.184C230.38 93.0987 231.959 93.0987 233.495 93.184C234.69 93.3547 235.287 93.696 235.287 94.208C235.287 94.72 234.434 94.976 232.727 94.976C231.532 94.976 230.21 95.0613 228.759 95.232C227.308 95.3173 225.772 95.5733 224.151 96C224.236 96.256 224.279 96.512 224.279 96.768C224.279 97.024 224.279 97.2373 224.279 97.408C224.279 98.2613 224.151 99.1573 223.895 100.096C222.786 103.509 220.78 106.027 217.879 107.648C214.978 109.269 212.034 110.08 209.047 110.08C206.146 110.08 203.714 109.483 201.751 108.288C201.068 107.947 200.428 107.477 199.831 106.88C198.722 107.477 197.612 108.16 196.503 108.928C195.308 109.696 194.156 110.464 193.047 111.232C192.706 111.488 192.407 111.616 192.151 111.616ZM207.895 107.776C210.37 107.776 212.802 106.965 215.191 105.344C217.58 103.808 218.903 101.205 219.159 97.536C213.527 99.4987 207.724 102.229 201.751 105.728C203.116 107.093 205.164 107.776 207.895 107.776Z" fill="#A4A4A4"/>
</svg>
