<svg width="26" height="26" viewBox="0 0 26 26" fill="none" xmlns="http://www.w3.org/2000/svg">
<path d="M10.0209 23.8334L9.58755 20.3667C9.35283 20.2764 9.13165 20.1681 8.92401 20.0417C8.71637 19.9153 8.51324 19.7799 8.31463 19.6354L5.09172 20.9896L2.11255 15.8438L4.90213 13.7313C4.88408 13.6049 4.87505 13.483 4.87505 13.3656V12.6344C4.87505 12.517 4.88408 12.3952 4.90213 12.2688L2.11255 10.1563L5.09172 5.01044L8.31463 6.3646C8.51324 6.22016 8.72088 6.08474 8.93755 5.95835C9.15422 5.83196 9.37088 5.72363 9.58755 5.63335L10.0209 2.16669H15.9792L16.4125 5.63335C16.6473 5.72363 16.8685 5.83196 17.0761 5.95835C17.2837 6.08474 17.4869 6.22016 17.6855 6.3646L20.9084 5.01044L23.8875 10.1563L21.098 12.2688C21.116 12.3952 21.125 12.517 21.125 12.6344V13.3656C21.125 13.483 21.107 13.6049 21.0709 13.7313L23.8605 15.8438L20.8813 20.9896L17.6855 19.6354C17.4869 19.7799 17.2792 19.9153 17.0625 20.0417C16.8459 20.1681 16.6292 20.2764 16.4125 20.3667L15.9792 23.8334H10.0209ZM11.9167 21.6667H14.0563L14.4355 18.7959C14.9952 18.6514 15.5143 18.4393 15.9928 18.1594C16.4712 17.8795 16.9091 17.541 17.3063 17.1438L19.9875 18.2542L21.0438 16.4125L18.7146 14.6521C18.8049 14.3993 18.8681 14.133 18.9042 13.8531C18.9403 13.5733 18.9584 13.2889 18.9584 13C18.9584 12.7111 18.9403 12.4268 18.9042 12.1469C18.8681 11.867 18.8049 11.6007 18.7146 11.3479L21.0438 9.58752L19.9875 7.74585L17.3063 8.88335C16.9091 8.46808 16.4712 8.12051 15.9928 7.84065C15.5143 7.56078 14.9952 7.34863 14.4355 7.20419L14.0834 4.33335H11.9438L11.5646 7.20419C11.0049 7.34863 10.4858 7.56078 10.0073 7.84065C9.52887 8.12051 9.09102 8.45905 8.6938 8.85627L6.01255 7.74585L4.9563 9.58752L7.28547 11.3209C7.19519 11.5917 7.13199 11.8625 7.09588 12.1334C7.05977 12.4042 7.04172 12.6931 7.04172 13C7.04172 13.2889 7.05977 13.5688 7.09588 13.8396C7.13199 14.1104 7.19519 14.3813 7.28547 14.6521L4.9563 16.4125L6.01255 18.2542L8.6938 17.1167C9.09102 17.532 9.52887 17.8795 10.0073 18.1594C10.4858 18.4393 11.0049 18.6514 11.5646 18.7959L11.9167 21.6667ZM13.0542 16.7917C14.1014 16.7917 14.9952 16.4215 15.7355 15.6813C16.4757 14.941 16.8459 14.0472 16.8459 13C16.8459 11.9528 16.4757 11.059 15.7355 10.3188C14.9952 9.57849 14.1014 9.20835 13.0542 9.20835C11.9889 9.20835 11.0907 9.57849 10.3594 10.3188C9.62817 11.059 9.26255 11.9528 9.26255 13C9.26255 14.0472 9.62817 14.941 10.3594 15.6813C11.0907 16.4215 11.9889 16.7917 13.0542 16.7917Z" fill="#767676"/>
</svg>
